{
	"asset":{
		"generator":"Khronos glTF Blender I/O v4.4.56",
		"version":"2.0"
	},
	"scene":0,
	"scenes":[
		{
			"name":"Scene",
			"nodes":[
				3
			]
		}
	],
	"nodes":[
		{
			"mesh":0,
			"name":"bottle_part01",
			"translation":[
				-1.8358230590820312e-05,
				8.987482070922852,
				0
			]
		},
		{
			"mesh":1,
			"name":"label_top_part02",
			"translation":[
				-1.8358230590820312e-05,
				8.987482070922852,
				0
			]
		},
		{
			"mesh":2,
			"name":"labels_part03",
			"translation":[
				-1.8358230590820312e-05,
				8.987482070922852,
				0
			]
		},
		{
			"children":[
				0,
				1,
				2
			],
			"name":"Moisturizing_Lotion_Container_Type_01_Pose_01_Blank_Group",
			"translation":[
				0,
				-7.559999942779541,
				0
			]
		}
	],
	"animations":[
		{
			"channels":[
				{
					"sampler":0,
					"target":{
						"node":3,
						"path":"rotation"
					}
				}
			],
			"name":"Moisturizing_Lotion_Container_Type_01_Pose_01_Blank_GroupAction",
			"samplers":[
				{
					"input":12,
					"interpolation":"LINEAR",
					"output":13
				}
			]
		}
	],
	"materials":[
		{
			"doubleSided":true,
			"name":"lotion_container_01.001"
		},
		{
			"doubleSided":true,
			"name":"labels_bottle_01.001",
			"pbrMetallicRoughness":{
				"baseColorTexture":{
					"index":0
				}
			}
		}
	],
	"meshes":[
		{
			"name":"Mesh.001",
			"primitives":[
				{
					"attributes":{
						"POSITION":0,
						"NORMAL":1,
						"TEXCOORD_0":2
					},
					"indices":3,
					"material":0
				}
			]
		},
		{
			"name":"Mesh",
			"primitives":[
				{
					"attributes":{
						"POSITION":4,
						"NORMAL":5,
						"TEXCOORD_0":6
					},
					"indices":7,
					"material":0
				}
			]
		},
		{
			"name":"Mesh.002",
			"primitives":[
				{
					"attributes":{
						"POSITION":8,
						"NORMAL":9,
						"TEXCOORD_0":10
					},
					"indices":11,
					"material":1
				}
			]
		}
	],
	"textures":[
		{
			"sampler":0,
			"source":0
		}
	],
	"images":[
		{
			"mimeType":"image/jpeg",
			"name":"WhatsApp Image 2025-07-05 at 03.25.41_662481ab",
			"uri":"WhatsApp%20Image%202025-07-05%20at%2003_25_41_662481ab.jpg"
		}
	],
	"accessors":[
		{
			"bufferView":0,
			"componentType":5126,
			"count":2066,
			"max":[
				4.541223049163818,
				5.407759666442871,
				1.611689805984497
			],
			"min":[
				-4.541223049163818,
				-8.987482070922852,
				-1.611689805984497
			],
			"type":"VEC3"
		},
		{
			"bufferView":1,
			"componentType":5126,
			"count":2066,
			"type":"VEC3"
		},
		{
			"bufferView":2,
			"componentType":5126,
			"count":2066,
			"type":"VEC2"
		},
		{
			"bufferView":3,
			"componentType":5123,
			"count":10176,
			"type":"SCALAR"
		},
		{
			"bufferView":4,
			"componentType":5126,
			"count":2134,
			"max":[
				2.2882094383239746,
				8.987481117248535,
				1.2966728210449219
			],
			"min":[
				-1.297563076019287,
				5.37565279006958,
				-1.2984721660614014
			],
			"type":"VEC3"
		},
		{
			"bufferView":5,
			"componentType":5126,
			"count":2134,
			"type":"VEC3"
		},
		{
			"bufferView":6,
			"componentType":5126,
			"count":2134,
			"type":"VEC2"
		},
		{
			"bufferView":7,
			"componentType":5123,
			"count":9444,
			"type":"SCALAR"
		},
		{
			"bufferView":8,
			"componentType":5126,
			"count":621,
			"max":[
				3.44846248626709,
				3.828747272491455,
				1.6375277042388916
			],
			"min":[
				-3.451883316040039,
				-7.792168617248535,
				-1.6375277042388916
			],
			"type":"VEC3"
		},
		{
			"bufferView":9,
			"componentType":5126,
			"count":621,
			"type":"VEC3"
		},
		{
			"bufferView":10,
			"componentType":5126,
			"count":621,
			"type":"VEC2"
		},
		{
			"bufferView":11,
			"componentType":5123,
			"count":3264,
			"type":"SCALAR"
		},
		{
			"bufferView":12,
			"componentType":5126,
			"count":201,
			"max":[
				8.333333333333334
			],
			"min":[
				0
			],
			"type":"SCALAR"
		},
		{
			"bufferView":13,
			"componentType":5126,
			"count":201,
			"type":"VEC4"
		}
	],
	"bufferViews":[
		{
			"buffer":0,
			"byteLength":24792,
			"byteOffset":0,
			"target":34962
		},
		{
			"buffer":0,
			"byteLength":24792,
			"byteOffset":24792,
			"target":34962
		},
		{
			"buffer":0,
			"byteLength":16528,
			"byteOffset":49584,
			"target":34962
		},
		{
			"buffer":0,
			"byteLength":20352,
			"byteOffset":66112,
			"target":34963
		},
		{
			"buffer":0,
			"byteLength":25608,
			"byteOffset":86464,
			"target":34962
		},
		{
			"buffer":0,
			"byteLength":25608,
			"byteOffset":112072,
			"target":34962
		},
		{
			"buffer":0,
			"byteLength":17072,
			"byteOffset":137680,
			"target":34962
		},
		{
			"buffer":0,
			"byteLength":18888,
			"byteOffset":154752,
			"target":34963
		},
		{
			"buffer":0,
			"byteLength":7452,
			"byteOffset":173640,
			"target":34962
		},
		{
			"buffer":0,
			"byteLength":7452,
			"byteOffset":181092,
			"target":34962
		},
		{
			"buffer":0,
			"byteLength":4968,
			"byteOffset":188544,
			"target":34962
		},
		{
			"buffer":0,
			"byteLength":6528,
			"byteOffset":193512,
			"target":34963
		},
		{
			"buffer":0,
			"byteLength":804,
			"byteOffset":200040
		},
		{
			"buffer":0,
			"byteLength":3216,
			"byteOffset":200844
		}
	],
	"samplers":[
		{
			"magFilter":9729,
			"minFilter":9987
		}
	],
	"buffers":[
		{
			"byteLength":204060,
			"uri":"bottle.bin"
		}
	]
}
