{
	"asset":{
		"generator":"Khronos glTF Blender I/O v4.4.56",
		"version":"2.0"
	},
	"extensionsUsed":[
		"KHR_texture_transform"
	],
	"extensionsRequired":[
		"KHR_texture_transform"
	],
	"scene":0,
	"scenes":[
		{
			"name":"Scene",
			"nodes":[
				0,
				1,
				2,
				3,
				4,
				5
			]
		}
	],
	"nodes":[
		{
			"mesh":0,
			"name":"bottleBody"
		},
		{
			"mesh":1,
			"name":"frontLable",
			"translation":[
				-1.8358230590820312e-05,
				0,
				0
			]
		},
		{
			"mesh":2,
			"name":"bottleCap",
			"translation":[
				-1.8358230590820312e-05,
				0,
				0
			]
		},
		{
			"mesh":3,
			"name":"extraLable",
			"translation":[
				0,
				0,
				0.9799999594688416
			]
		},
		{
			"mesh":4,
			"name":"backLable",
			"translation":[
				0,
				0,
				-0.009999999776482582
			]
		},
		{
			"mesh":5,
			"name":"bottomText",
			"rotation":[
				0,
				0,
				1,
				4.371138828673793e-08
			],
			"translation":[
				0,
				-9.254786491394043,
				0.1330289989709854
			]
		}
	],
	"materials":[
		{
			"doubleSided":true,
			"name":"lotion_container_01.001"
		},
		{
			"doubleSided":true,
			"name":"labels_bottle_01.001",
			"pbrMetallicRoughness":{
				"baseColorTexture":{
					"extensions":{
						"KHR_texture_transform":{
							"offset":[
								0.30000001192092896,
								-0.15999997593462467
							],
							"scale":[
								1.6999999284744263,
								1.149999976158142
							]
						}
					},
					"index":0
				},
				"metallicFactor":0
			}
		},
		{
			"doubleSided":true,
			"name":"black",
			"pbrMetallicRoughness":{
				"baseColorFactor":[
					0,
					0,
					0,
					1
				],
				"metallicFactor":0.6941580772399902,
				"roughnessFactor":0.07731959223747253
			}
		},
		{
			"doubleSided":true,
			"name":"Material.001",
			"pbrMetallicRoughness":{
				"baseColorTexture":{
					"extensions":{
						"KHR_texture_transform":{
							"offset":[
								0,
								-0.20000004768371582
							],
							"scale":[
								1.8999998569488525,
								1.2000000476837158
							]
						}
					},
					"index":1
				},
				"metallicFactor":0,
				"roughnessFactor":0.5
			}
		},
		{
			"doubleSided":true,
			"name":"Material.007",
			"pbrMetallicRoughness":{
				"baseColorTexture":{
					"extensions":{
						"KHR_texture_transform":{
							"offset":[
								1,
								-0.17999997548758984
							],
							"scale":[
								2,
								1.149999976158142
							]
						}
					},
					"index":2
				},
				"metallicFactor":0,
				"roughnessFactor":0.5
			}
		}
	],
	"meshes":[
		{
			"name":"Mesh.001",
			"primitives":[
				{
					"attributes":{
						"POSITION":0,
						"NORMAL":1,
						"TEXCOORD_0":2
					},
					"indices":3,
					"material":0
				}
			]
		},
		{
			"name":"Mesh.002",
			"primitives":[
				{
					"attributes":{
						"POSITION":4,
						"NORMAL":5,
						"TEXCOORD_0":6
					},
					"indices":7,
					"material":1
				}
			]
		},
		{
			"name":"Mesh",
			"primitives":[
				{
					"attributes":{
						"POSITION":8,
						"NORMAL":9,
						"TEXCOORD_0":10
					},
					"indices":11,
					"material":2
				}
			]
		},
		{
			"name":"Mesh.003",
			"primitives":[
				{
					"attributes":{
						"POSITION":12,
						"NORMAL":13,
						"TEXCOORD_0":14
					},
					"indices":15,
					"material":3
				}
			]
		},
		{
			"name":"Mesh.005",
			"primitives":[
				{
					"attributes":{
						"POSITION":16,
						"NORMAL":17,
						"TEXCOORD_0":18
					},
					"indices":15,
					"material":4
				}
			]
		},
		{
			"name":"Text",
			"primitives":[
				{
					"attributes":{
						"POSITION":19,
						"NORMAL":20,
						"TEXCOORD_0":21
					},
					"indices":22,
					"material":2
				}
			]
		}
	],
	"textures":[
		{
			"sampler":0,
			"source":0
		},
		{
			"sampler":0,
			"source":1
		},
		{
			"sampler":0,
			"source":2
		}
	],
	"images":[
		{
			"mimeType":"image/jpeg",
			"name":"WhatsApp Image 2025-07-05 at 03.25",
			"uri":"WhatsApp%20Image%202025-07-05%20at%2003_25.jpg"
		},
		{
			"mimeType":"image/jpeg",
			"name":"blck",
			"uri":"blck.jpg"
		},
		{
			"mimeType":"image/jpeg",
			"name":"nano",
			"uri":"nano.jpg"
		}
	],
	"accessors":[
		{
			"bufferView":0,
			"componentType":5126,
			"count":2066,
			"max":[
				4.541223049163818,
				5.407759666442871,
				1.611689805984497
			],
			"min":[
				-4.541223049163818,
				-8.987482070922852,
				-1.611689805984497
			],
			"type":"VEC3"
		},
		{
			"bufferView":1,
			"componentType":5126,
			"count":2066,
			"type":"VEC3"
		},
		{
			"bufferView":2,
			"componentType":5126,
			"count":2066,
			"type":"VEC2"
		},
		{
			"bufferView":3,
			"componentType":5123,
			"count":10176,
			"type":"SCALAR"
		},
		{
			"bufferView":4,
			"componentType":5126,
			"count":317,
			"max":[
				3.44846248626709,
				3.828747272491455,
				1.6375277042388916
			],
			"min":[
				-3.451883316040039,
				-7.792168617248535,
				1.6119296550750732
			],
			"type":"VEC3"
		},
		{
			"bufferView":5,
			"componentType":5126,
			"count":317,
			"type":"VEC3"
		},
		{
			"bufferView":6,
			"componentType":5126,
			"count":317,
			"type":"VEC2"
		},
		{
			"bufferView":7,
			"componentType":5123,
			"count":1632,
			"type":"SCALAR"
		},
		{
			"bufferView":8,
			"componentType":5126,
			"count":2134,
			"max":[
				2.2882094383239746,
				8.987481117248535,
				1.2966728210449219
			],
			"min":[
				-1.297563076019287,
				5.37565279006958,
				-1.2984721660614014
			],
			"type":"VEC3"
		},
		{
			"bufferView":9,
			"componentType":5126,
			"count":2134,
			"type":"VEC3"
		},
		{
			"bufferView":10,
			"componentType":5126,
			"count":2134,
			"type":"VEC2"
		},
		{
			"bufferView":11,
			"componentType":5123,
			"count":9444,
			"type":"SCALAR"
		},
		{
			"bufferView":12,
			"componentType":5126,
			"count":304,
			"max":[
				3.44846248626709,
				3.828747272491455,
				-1.6119298934936523
			],
			"min":[
				-3.451883316040039,
				-7.792168617248535,
				-1.6375277042388916
			],
			"type":"VEC3"
		},
		{
			"bufferView":13,
			"componentType":5126,
			"count":304,
			"type":"VEC3"
		},
		{
			"bufferView":14,
			"componentType":5126,
			"count":304,
			"type":"VEC2"
		},
		{
			"bufferView":15,
			"componentType":5123,
			"count":1632,
			"type":"SCALAR"
		},
		{
			"bufferView":16,
			"componentType":5126,
			"count":304,
			"max":[
				3.44846248626709,
				3.828747272491455,
				-1.6119298934936523
			],
			"min":[
				-3.451883316040039,
				-7.792168617248535,
				-1.6375277042388916
			],
			"type":"VEC3"
		},
		{
			"bufferView":17,
			"componentType":5126,
			"count":304,
			"type":"VEC3"
		},
		{
			"bufferView":18,
			"componentType":5126,
			"count":304,
			"type":"VEC2"
		},
		{
			"bufferView":19,
			"componentType":5126,
			"count":244,
			"max":[
				3.2210001945495605,
				-0.21776458621025085,
				0.30900001525878906
			],
			"min":[
				-3.2360002994537354,
				-0.21776458621025085,
				-0.38966670632362366
			],
			"type":"VEC3"
		},
		{
			"bufferView":20,
			"componentType":5126,
			"count":244,
			"type":"VEC3"
		},
		{
			"bufferView":21,
			"componentType":5126,
			"count":244,
			"type":"VEC2"
		},
		{
			"bufferView":22,
			"componentType":5123,
			"count":684,
			"type":"SCALAR"
		}
	],
	"bufferViews":[
		{
			"buffer":0,
			"byteLength":24792,
			"byteOffset":0,
			"target":34962
		},
		{
			"buffer":0,
			"byteLength":24792,
			"byteOffset":24792,
			"target":34962
		},
		{
			"buffer":0,
			"byteLength":16528,
			"byteOffset":49584,
			"target":34962
		},
		{
			"buffer":0,
			"byteLength":20352,
			"byteOffset":66112,
			"target":34963
		},
		{
			"buffer":0,
			"byteLength":3804,
			"byteOffset":86464,
			"target":34962
		},
		{
			"buffer":0,
			"byteLength":3804,
			"byteOffset":90268,
			"target":34962
		},
		{
			"buffer":0,
			"byteLength":2536,
			"byteOffset":94072,
			"target":34962
		},
		{
			"buffer":0,
			"byteLength":3264,
			"byteOffset":96608,
			"target":34963
		},
		{
			"buffer":0,
			"byteLength":25608,
			"byteOffset":99872,
			"target":34962
		},
		{
			"buffer":0,
			"byteLength":25608,
			"byteOffset":125480,
			"target":34962
		},
		{
			"buffer":0,
			"byteLength":17072,
			"byteOffset":151088,
			"target":34962
		},
		{
			"buffer":0,
			"byteLength":18888,
			"byteOffset":168160,
			"target":34963
		},
		{
			"buffer":0,
			"byteLength":3648,
			"byteOffset":187048,
			"target":34962
		},
		{
			"buffer":0,
			"byteLength":3648,
			"byteOffset":190696,
			"target":34962
		},
		{
			"buffer":0,
			"byteLength":2432,
			"byteOffset":194344,
			"target":34962
		},
		{
			"buffer":0,
			"byteLength":3264,
			"byteOffset":196776,
			"target":34963
		},
		{
			"buffer":0,
			"byteLength":3648,
			"byteOffset":200040,
			"target":34962
		},
		{
			"buffer":0,
			"byteLength":3648,
			"byteOffset":203688,
			"target":34962
		},
		{
			"buffer":0,
			"byteLength":2432,
			"byteOffset":207336,
			"target":34962
		},
		{
			"buffer":0,
			"byteLength":2928,
			"byteOffset":209768,
			"target":34962
		},
		{
			"buffer":0,
			"byteLength":2928,
			"byteOffset":212696,
			"target":34962
		},
		{
			"buffer":0,
			"byteLength":1952,
			"byteOffset":215624,
			"target":34962
		},
		{
			"buffer":0,
			"byteLength":1368,
			"byteOffset":217576,
			"target":34963
		}
	],
	"samplers":[
		{
			"magFilter":9729,
			"minFilter":9987
		}
	],
	"buffers":[
		{
			"byteLength":218944,
			"uri":"Final1.bin"
		}
	]
}
