{
	"asset":{
		"generator":"Khronos glTF Blender I/O v4.4.56",
		"version":"2.0"
	},
	"scene":0,
	"scenes":[
		{
			"name":"Scene",
			"nodes":[
				3,
				4,
				5
			]
		}
	],
	"nodes":[
		{
			"mesh":0,
			"name":"bottle_part01",
			"translation":[
				-1.8358230590820312e-05,
				8.987482070922852,
				0
			]
		},
		{
			"mesh":1,
			"name":"label_top_part02",
			"translation":[
				-1.8358230590820312e-05,
				8.987482070922852,
				0
			]
		},
		{
			"mesh":2,
			"name":"labels_part03",
			"rotation":[
				0,
				0.9999953508377075,
				0,
				0.0030469088815152645
			],
			"translation":[
				-1.8358230590820312e-05,
				8.987482070922852,
				0
			]
		},
		{
			"children":[
				0,
				1,
				2
			],
			"name":"Moisturizing_Lotion_Container_Type_01_Pose_01_Blank_Group"
		},
		{
			"mesh":3,
			"name":"Shampoo_Source",
			"rotation":[
				0,
				1,
				0,
				0
			],
			"scale":[
				-14.880000114440918,
				-126.97000122070312,
				-5.419999599456787
			],
			"translation":[
				0,
				6.679999828338623,
				0
			]
		},
		{
			"mesh":4,
			"name":"Fluid_Domain"
		}
	],
	"animations":[
		{
			"channels":[
				{
					"sampler":0,
					"target":{
						"node":3,
						"path":"rotation"
					}
				}
			],
			"name":"Moisturizing_Lotion_Container_Type_01_Pose_01_Blank_GroupAc.001",
			"samplers":[
				{
					"input":20,
					"interpolation":"LINEAR",
					"output":21
				}
			]
		},
		{
			"channels":[
				{
					"sampler":0,
					"target":{
						"node":4,
						"path":"rotation"
					}
				}
			],
			"name":"Shampoo_SourceAction.001",
			"samplers":[
				{
					"input":20,
					"interpolation":"LINEAR",
					"output":22
				}
			]
		}
	],
	"materials":[
		{
			"doubleSided":true,
			"name":"Realistic_Glass_Bottle.001"
		},
		{
			"doubleSided":true,
			"name":"Material.001",
			"pbrMetallicRoughness":{
				"baseColorFactor":[
					0,
					0,
					0,
					1
				],
				"metallicFactor":0.07407407462596893,
				"roughnessFactor":0.5
			}
		},
		{
			"doubleSided":true,
			"name":"labels_bottle_01.001",
			"pbrMetallicRoughness":{
				"baseColorTexture":{
					"index":0
				}
			}
		},
		{
			"alphaMode":"BLEND",
			"doubleSided":true,
			"name":"Shampoo_Material.001",
			"pbrMetallicRoughness":{
				"baseColorFactor":[
					0.3934127688407898,
					0.8999931812286377,
					0.8838258981704712,
					0.800000011920929
				],
				"metallicFactor":0,
				"roughnessFactor":0.20000000298023224
			}
		}
	],
	"meshes":[
		{
			"name":"Mesh.001",
			"primitives":[
				{
					"attributes":{
						"POSITION":0,
						"NORMAL":1,
						"TEXCOORD_0":2
					},
					"indices":3,
					"material":0
				}
			]
		},
		{
			"name":"Mesh",
			"primitives":[
				{
					"attributes":{
						"POSITION":4,
						"NORMAL":5,
						"TEXCOORD_0":6
					},
					"indices":7,
					"material":1
				}
			]
		},
		{
			"name":"Mesh.002",
			"primitives":[
				{
					"attributes":{
						"POSITION":8,
						"NORMAL":9,
						"TEXCOORD_0":10
					},
					"indices":11,
					"material":2
				}
			]
		},
		{
			"name":"Cylinder",
			"primitives":[
				{
					"attributes":{
						"POSITION":12,
						"NORMAL":13,
						"TEXCOORD_0":14
					},
					"indices":15,
					"material":3
				}
			]
		},
		{
			"name":"Cube",
			"primitives":[
				{
					"attributes":{
						"POSITION":16,
						"NORMAL":17,
						"TEXCOORD_0":18
					},
					"indices":19
				}
			]
		}
	],
	"textures":[
		{
			"sampler":0,
			"source":0
		}
	],
	"images":[
		{
			"mimeType":"image/jpeg",
			"name":"black label.jpg",
			"uri":"../../1.%20True%20Friends%20Transparent%20Images/black%20label.jpg"
		}
	],
	"accessors":[
		{
			"bufferView":0,
			"componentType":5126,
			"count":2066,
			"max":[
				4.541223049163818,
				5.407759666442871,
				1.611689805984497
			],
			"min":[
				-4.541223049163818,
				-8.987482070922852,
				-1.611689805984497
			],
			"type":"VEC3"
		},
		{
			"bufferView":1,
			"componentType":5126,
			"count":2066,
			"type":"VEC3"
		},
		{
			"bufferView":2,
			"componentType":5126,
			"count":2066,
			"type":"VEC2"
		},
		{
			"bufferView":3,
			"componentType":5123,
			"count":10176,
			"type":"SCALAR"
		},
		{
			"bufferView":4,
			"componentType":5126,
			"count":2134,
			"max":[
				2.2882094383239746,
				8.987481117248535,
				1.2966728210449219
			],
			"min":[
				-1.297563076019287,
				5.37565279006958,
				-1.2984721660614014
			],
			"type":"VEC3"
		},
		{
			"bufferView":5,
			"componentType":5126,
			"count":2134,
			"type":"VEC3"
		},
		{
			"bufferView":6,
			"componentType":5126,
			"count":2134,
			"type":"VEC2"
		},
		{
			"bufferView":7,
			"componentType":5123,
			"count":9444,
			"type":"SCALAR"
		},
		{
			"bufferView":8,
			"componentType":5126,
			"count":594,
			"max":[
				3.44846248626709,
				3.828747272491455,
				1.6375277042388916
			],
			"min":[
				-3.451883316040039,
				-7.792168617248535,
				-1.6375277042388916
			],
			"type":"VEC3"
		},
		{
			"bufferView":9,
			"componentType":5126,
			"count":594,
			"type":"VEC3"
		},
		{
			"bufferView":10,
			"componentType":5126,
			"count":594,
			"type":"VEC2"
		},
		{
			"bufferView":11,
			"componentType":5123,
			"count":3264,
			"type":"SCALAR"
		},
		{
			"bufferView":12,
			"componentType":5126,
			"count":192,
			"max":[
				0.30000001192092896,
				0.05000000074505806,
				0.30000001192092896
			],
			"min":[
				-0.30000001192092896,
				-0.05000000074505806,
				-0.30000001192092896
			],
			"type":"VEC3"
		},
		{
			"bufferView":13,
			"componentType":5126,
			"count":192,
			"type":"VEC3"
		},
		{
			"bufferView":14,
			"componentType":5126,
			"count":192,
			"type":"VEC2"
		},
		{
			"bufferView":15,
			"componentType":5123,
			"count":372,
			"type":"SCALAR"
		},
		{
			"bufferView":16,
			"componentType":5126,
			"count":24,
			"max":[
				3,
				3,
				3
			],
			"min":[
				-3,
				-3,
				-3
			],
			"type":"VEC3"
		},
		{
			"bufferView":17,
			"componentType":5126,
			"count":24,
			"type":"VEC3"
		},
		{
			"bufferView":18,
			"componentType":5126,
			"count":24,
			"type":"VEC2"
		},
		{
			"bufferView":19,
			"componentType":5123,
			"count":36,
			"type":"SCALAR"
		},
		{
			"bufferView":20,
			"componentType":5126,
			"count":100,
			"max":[
				4.166666666666667
			],
			"min":[
				0.041666666666666664
			],
			"type":"SCALAR"
		},
		{
			"bufferView":21,
			"componentType":5126,
			"count":100,
			"type":"VEC4"
		},
		{
			"bufferView":22,
			"componentType":5126,
			"count":100,
			"type":"VEC4"
		}
	],
	"bufferViews":[
		{
			"buffer":0,
			"byteLength":24792,
			"byteOffset":0,
			"target":34962
		},
		{
			"buffer":0,
			"byteLength":24792,
			"byteOffset":24792,
			"target":34962
		},
		{
			"buffer":0,
			"byteLength":16528,
			"byteOffset":49584,
			"target":34962
		},
		{
			"buffer":0,
			"byteLength":20352,
			"byteOffset":66112,
			"target":34963
		},
		{
			"buffer":0,
			"byteLength":25608,
			"byteOffset":86464,
			"target":34962
		},
		{
			"buffer":0,
			"byteLength":25608,
			"byteOffset":112072,
			"target":34962
		},
		{
			"buffer":0,
			"byteLength":17072,
			"byteOffset":137680,
			"target":34962
		},
		{
			"buffer":0,
			"byteLength":18888,
			"byteOffset":154752,
			"target":34963
		},
		{
			"buffer":0,
			"byteLength":7128,
			"byteOffset":173640,
			"target":34962
		},
		{
			"buffer":0,
			"byteLength":7128,
			"byteOffset":180768,
			"target":34962
		},
		{
			"buffer":0,
			"byteLength":4752,
			"byteOffset":187896,
			"target":34962
		},
		{
			"buffer":0,
			"byteLength":6528,
			"byteOffset":192648,
			"target":34963
		},
		{
			"buffer":0,
			"byteLength":2304,
			"byteOffset":199176,
			"target":34962
		},
		{
			"buffer":0,
			"byteLength":2304,
			"byteOffset":201480,
			"target":34962
		},
		{
			"buffer":0,
			"byteLength":1536,
			"byteOffset":203784,
			"target":34962
		},
		{
			"buffer":0,
			"byteLength":744,
			"byteOffset":205320,
			"target":34963
		},
		{
			"buffer":0,
			"byteLength":288,
			"byteOffset":206064,
			"target":34962
		},
		{
			"buffer":0,
			"byteLength":288,
			"byteOffset":206352,
			"target":34962
		},
		{
			"buffer":0,
			"byteLength":192,
			"byteOffset":206640,
			"target":34962
		},
		{
			"buffer":0,
			"byteLength":72,
			"byteOffset":206832,
			"target":34963
		},
		{
			"buffer":0,
			"byteLength":400,
			"byteOffset":206904
		},
		{
			"buffer":0,
			"byteLength":1600,
			"byteOffset":207304
		},
		{
			"buffer":0,
			"byteLength":1600,
			"byteOffset":208904
		}
	],
	"samplers":[
		{
			"magFilter":9729,
			"minFilter":9987
		}
	],
	"buffers":[
		{
			"byteLength":210504,
			"uri":"newAnim.bin"
		}
	]
}
